<svg width="47" height="47" viewBox="0 0 201 201" fill="none" xmlns="http://www.w3.org/2000/svg">
<path d="M200.285 0.101318H0.284668V200.101H200.285V0.101318Z" fill="url(#paint0_linear_1180_287)"/>
<path d="M200.284 0.101318H0.283691V200.101H200.284V0.101318Z" fill="url(#paint1_linear_1180_287)"/>
<path d="M74.2371 46.0158C75.3291 46.0158 76.2771 45.9198 77.0811 45.7278C77.8971 45.5238 78.6711 45.2478 79.4031 44.8998V40.1658H76.1451C75.8331 40.1658 75.5871 40.0818 75.4071 39.9138C75.2271 39.7338 75.1371 39.5178 75.1371 39.2658V36.5298H83.7951V47.0598C83.1351 47.5398 82.4451 47.9598 81.7251 48.3198C81.0171 48.6678 80.2551 48.9558 79.4391 49.1838C78.6351 49.4118 77.7711 49.5798 76.8471 49.6878C75.9231 49.8078 74.9271 49.8678 73.8591 49.8678C71.9631 49.8678 70.2171 49.5378 68.6211 48.8778C67.0251 48.2178 65.6451 47.2998 64.4811 46.1238C63.3171 44.9478 62.4051 43.5438 61.7451 41.9118C61.0971 40.2798 60.7731 38.4978 60.7731 36.5658C60.7731 34.6098 61.0911 32.8158 61.7271 31.1838C62.3631 29.5518 63.2631 28.1478 64.4271 26.9718C65.6031 25.7958 67.0251 24.8838 68.6931 24.2358C70.3611 23.5878 72.2331 23.2638 74.3091 23.2638C76.4331 23.2638 78.2691 23.5818 79.8171 24.2178C81.3771 24.8418 82.6971 25.6578 83.7771 26.6658L82.3731 28.8618C82.0971 29.3058 81.7311 29.5278 81.2751 29.5278C80.9871 29.5278 80.6931 29.4318 80.3931 29.2398C80.0091 29.0118 79.6131 28.7838 79.2051 28.5558C78.8091 28.3278 78.3651 28.1298 77.8731 27.9618C77.3931 27.7938 76.8471 27.6558 76.2351 27.5478C75.6351 27.4398 74.9391 27.3858 74.1471 27.3858C72.8631 27.3858 71.6991 27.6018 70.6551 28.0338C69.6231 28.4658 68.7411 29.0838 68.0091 29.8878C67.2771 30.6918 66.7131 31.6578 66.3171 32.7858C65.9211 33.9138 65.7231 35.1738 65.7231 36.5658C65.7231 38.0658 65.9331 39.4038 66.3531 40.5798C66.7731 41.7438 67.3611 42.7278 68.1171 43.5318C68.8731 44.3358 69.7731 44.9538 70.8171 45.3858C71.8611 45.8058 73.0011 46.0158 74.2371 46.0158ZM92.9447 39.4098V49.5798H88.1027V23.5518H96.0407C97.8167 23.5518 99.3347 23.7378 100.595 24.1098C101.867 24.4698 102.905 24.9798 103.709 25.6398C104.525 26.2998 105.119 27.0918 105.491 28.0158C105.875 28.9278 106.067 29.9358 106.067 31.0398C106.067 31.9158 105.935 32.7438 105.671 33.5238C105.419 34.3038 105.047 35.0118 104.555 35.6478C104.075 36.2838 103.475 36.8418 102.755 37.3218C102.047 37.8018 101.237 38.1858 100.325 38.4738C100.937 38.8218 101.465 39.3198 101.909 39.9678L108.425 49.5798H104.069C103.649 49.5798 103.289 49.4958 102.989 49.3278C102.701 49.1598 102.455 48.9198 102.251 48.6078L96.7787 40.2738C96.5747 39.9618 96.3467 39.7398 96.0947 39.6078C95.8547 39.4758 95.4947 39.4098 95.0147 39.4098H92.9447ZM92.9447 35.9358H95.9687C96.8807 35.9358 97.6727 35.8218 98.3447 35.5938C99.0287 35.3658 99.5867 35.0538 100.019 34.6578C100.463 34.2498 100.793 33.7698 101.009 33.2178C101.225 32.6658 101.333 32.0598 101.333 31.3998C101.333 30.0798 100.895 29.0658 100.019 28.3578C99.1547 27.6498 97.8287 27.2958 96.0407 27.2958H92.9447V35.9358ZM116.625 49.5798H111.765V23.5518H116.625V49.5798ZM140.473 23.5518V27.5298H132.643V49.5798H127.801V27.5298H119.935V23.5518H140.473Z" fill="white"/>
<path d="M37.8755 184.051L45.2521 167.025L58.825 158.824L64.8553 134.752C76.7316 128.276 87.1879 119.961 95.7447 109.196L100.097 100.431L109.041 94.9553C112.582 112.122 119.11 124.39 123.389 129.779C126.708 129.188 130.23 129.51 132.886 128.047C137.293 130.705 138.584 137.651 143.379 138.027L149.317 157.784L161.193 170.125L171.447 180.004" stroke="white" stroke-width="4" stroke-miterlimit="1.5" stroke-linecap="round" stroke-linejoin="round"/>
<path fill-rule="evenodd" clip-rule="evenodd" d="M109.017 94.9546L107.523 142.61L88.1409 161.709L91.5894 172.434L67.5049 185.5L155.71 179.983L144.34 162.615L123.106 134.389L117.979 121.564L114.494 113.658L110.916 102.786L109.017 94.9546Z" fill="white" stroke="white" stroke-width="2.41433" stroke-miterlimit="1.5" stroke-linecap="round" stroke-linejoin="round"/>
<path fill-rule="evenodd" clip-rule="evenodd" d="M132.862 128.422L141.364 143.112L137.786 156.87L155.693 179.983L171.423 180.003L160.617 169.668L148.98 157.689L143.669 137.469L139.317 135.677L134.577 129.556L132.862 128.422Z" fill="white" stroke="white" stroke-width="2.41433" stroke-miterlimit="1.5" stroke-linecap="round" stroke-linejoin="round"/>
<path fill-rule="evenodd" clip-rule="evenodd" d="M81.3065 110.601L87.3048 115.466L85.7748 120.076L81.4436 122.718L82.9378 117.114L76.5613 114.376L74.7412 120.579L74.929 127.258L71.1009 130.844L70.081 122.064L71.0747 113.829L71.0399 110.685C69.4836 110.175 68.2613 109.116 67.4683 107.385C66.7531 106.399 66.2505 105.333 66.474 103.969L73.2977 92.0836L75.0579 92.471C75.259 90.113 76.1337 88.6316 78.0509 88.595C80.6633 88.6485 81.3535 90.5657 80.4558 93.3208L81.4844 94.0577L81.0335 96.1078L83.2706 98.7368L85.194 104.116L88.17 101.102L90.9628 99.9305C91.5085 100.618 92.2358 101.973 92.1788 103.425L90.5544 104.581L89.092 104.437L86.2939 107.557L84.2019 108.055L81.7345 105.661L81.3065 110.601Z" fill="white"/>
<path d="M92.8699 112.087L83.5454 70.2974" stroke="white" stroke-width="4" stroke-miterlimit="1.5" stroke-linecap="round" stroke-linejoin="round"/>
<path fill-rule="evenodd" clip-rule="evenodd" d="M83.2066 67.9603C78.9481 71.6326 73.8064 74.5536 66.6635 75.7346C70.4058 80.4703 70.4246 84.1699 68.8792 87.4145C75.5897 82.2575 81.3864 78.6413 85.5929 77.7344L83.2066 67.9603Z" fill="#BF2D2D" stroke="#BF2D2D" stroke-width="5.68485" stroke-miterlimit="1.5" stroke-linecap="round" stroke-linejoin="round"/>
<defs>
<linearGradient id="paint0_linear_1180_287" x1="100.285" y1="0.101318" x2="202.542" y2="185.589" gradientUnits="userSpaceOnUse">
<stop stop-color="#6456B5"/>
<stop offset="1" stop-color="#473C88"/>
</linearGradient>
<linearGradient id="paint1_linear_1180_287" x1="100.284" y1="0.101318" x2="223.295" y2="178.62" gradientUnits="userSpaceOnUse">
<stop stop-color="#2D5A83"/>
<stop offset="1" stop-color="#1C4369"/>
</linearGradient>
</defs>
</svg>
